<?xml version="1.0" standalone="no"?>
<!DOCTYPE svg PUBLIC "-//W3C//DTD SVG 20010904//EN"
 "http://www.w3.org/TR/2001/REC-SVG-20010904/DTD/svg10.dtd">
<svg version="1.0" xmlns="http://www.w3.org/2000/svg"
 width="1735.000000pt" height="592.000000pt" viewBox="0 0 1735.000000 592.000000"
 preserveAspectRatio="xMidYMid meet">

<g transform="translate(0.000000,592.000000) scale(0.100000,-0.100000)"
fill="#001f3f" stroke="none">
<path d="M3285 5334 c-272 -30 -570 -116 -807 -235 -290 -145 -593 -398 -790
-660 -292 -388 -445 -810 -473 -1304 -19 -318 66 -732 213 -1037 460 -960
1502 -1484 2527 -1272 832 172 1535 841 1745 1658 56 219 64 292 65 551 0 257
-10 352 -62 564 -83 345 -264 688 -513 975 -330 381 -824 654 -1340 741 -92
16 -475 28 -565 19z"/>
<path d="M8690 5330 c-41 -6 -123 -19 -182 -30 -845 -161 -1540 -806 -1772
-1645 -47 -173 -63 -268 -78 -463 -19 -254 6 -487 83 -766 206 -749 850 -1376
1614 -1571 230 -59 324 -70 580 -70 193 1 250 4 356 23 330 59 608 170 879
350 579 385 929 945 1021 1632 17 131 15 419 -5 555 -20 133 -76 366 -118 484
-39 113 -141 324 -207 430 -125 201 -336 439 -516 581 -309 244 -664 405
-1040 471 -137 24 -486 34 -615 19z"/>
<path d="M15635 5322 c-105 -36 -169 -117 -213 -267 -11 -38 -30 -103 -42
-142 l-21 -73 -1339 -2 c-1334 -3 -1339 -3 -1366 -24 -93 -69 -91 -97 24 -529
50 -187 116 -434 147 -550 31 -115 63 -235 73 -265 22 -69 81 -134 137 -148
22 -6 195 -27 385 -47 1208 -126 1551 -166 1604 -186 100 -37 149 -125 110
-198 -26 -48 -75 -78 -137 -86 -29 -3 -572 -5 -1207 -3 l-1155 3 -14 55 c-7
30 -18 72 -23 93 l-9 37 -341 0 -341 0 6 -122 c31 -591 312 -1161 762 -1548
675 -579 1561 -703 2320 -323 633 316 1079 901 1205 1578 19 105 40 298 40
378 l0 37 -333 0 -333 0 -18 -77 c-27 -116 -26 -114 -104 -111 -54 2 -66 6
-63 18 14 50 12 202 -3 251 -21 75 -84 159 -151 203 -30 21 -55 41 -55 46 0 4
29 102 64 217 76 244 242 798 362 1203 47 157 89 297 95 313 l11 27 215 0
c239 0 269 6 303 62 38 62 15 145 -51 180 -30 16 -60 18 -264 18 -192 -1 -238
-4 -280 -18z m-2339 -957 c19 -110 34 -206 34 -212 0 -10 -40 -13 -169 -13
-153 0 -170 2 -175 18 -45 153 -116 402 -116 407 0 3 88 4 197 3 l196 -3 33
-200z m644 -10 l0 -215 -208 0 -208 0 -33 201 c-18 111 -35 207 -38 215 -4 12
35 14 241 14 l246 0 0 -215z m710 210 c0 -8 -60 -379 -65 -402 -5 -23 -6 -23
-210 -23 l-205 0 0 215 0 215 240 0 c132 0 240 -2 240 -5z m617 -16 c-3 -11
-32 -108 -64 -215 l-58 -194 -186 0 -186 0 12 73 c7 39 22 136 35 215 l23 142
215 0 c213 0 214 0 209 -21z m-1983 -609 l82 0 32 -201 c18 -111 30 -204 28
-207 -6 -6 -268 17 -275 23 -7 7 -100 358 -101 379 0 18 6 18 77 12 42 -3 113
-6 157 -6z m634 2 l22 -2 0 -230 c0 -212 -1 -230 -17 -230 -67 0 -280 25 -289
34 -10 10 -75 375 -74 416 0 13 25 15 168 15 92 -1 177 -2 190 -3z m474 -2
l161 0 -7 -32 c-4 -18 -23 -130 -42 -248 -20 -118 -39 -218 -43 -221 -3 -4
-67 -1 -141 7 -74 7 -138 13 -142 13 -5 1 -8 109 -8 240 0 220 1 240 18 244 9
3 23 3 30 1 8 -2 86 -4 174 -4z m686 -5 c6 -5 -147 -526 -157 -538 -7 -7 -251
11 -260 19 -6 6 69 481 80 511 8 22 9 22 171 16 90 -3 164 -7 166 -8z"/>
</g>
</svg>
